<svg width="77" height="77" viewBox="0 0 77 77" fill="none" xmlns="http://www.w3.org/2000/svg">
<circle cx="38.5" cy="38.5" r="37.5" fill="white" stroke="#263238" stroke-width="1.95833"/>
<path d="M60.3327 61V55.6667C60.3327 52.8377 59.2089 50.1246 57.2085 48.1242C55.2081 46.1238 52.495 45 49.666 45H28.3327C25.5037 45 22.7906 46.1238 20.7902 48.1242C18.7898 50.1246 17.666 52.8377 17.666 55.6667V61" stroke="#263238" stroke-width="1.95833" stroke-linecap="round" stroke-linejoin="round"/>
<path d="M39.0007 34.3333C44.8917 34.3333 49.6673 29.5577 49.6673 23.6667C49.6673 17.7756 44.8917 13 39.0007 13C33.1096 13 28.334 17.7756 28.334 23.6667C28.334 29.5577 33.1096 34.3333 39.0007 34.3333Z" stroke="#263238" stroke-width="1.95833" stroke-linecap="round" stroke-linejoin="round"/>
</svg>
